<?xml version="1.0" encoding="UTF-8"?>
<svg id="AICleanLogo" xmlns="http://www.w3.org/2000/svg" viewBox="0 0 800 800">
  <defs>
    <style>
      .cls-1 {
        fill: #fff;
      }

      .cls-2 {
        fill: #1d1d1b;
      }
    </style>
  </defs>
  <g id="Android_BLack" data-name="Android BLack">
    <g id="Body">
      <path d="m399.5,327.5c-75.66,0-137,61.11-137,136.5s61.34,136.5,137,136.5,137-61.11,137-136.5-61.34-136.5-137-136.5Zm83.77,230.8c-23.28,19.38-49.04,26.84-61.4,29.7l96.07-78.73c-3.47,10.09-12.26,30.37-34.67,49.03Z"/>
      <ellipse id="InnerBody" class="cls-1" cx="399" cy="440.5" rx="126.5" ry="114"/>
    </g>
    <g id="Head">
      <path class="cls-2" d="m399.5,134.5c-75.39,0-136.5,61.11-136.5,136.5s61.11,136.5,136.5,136.5,136.5-61.11,136.5-136.5-61.11-136.5-136.5-136.5Zm36.08,14.71c11.09,3.31,33.4,11.59,54.05,32.07,21.45,21.27,29.84,44.52,33.09,55.67l-87.14-87.74Z"/>
      <circle id="FaceBase" class="cls-1" cx="400" cy="296.5" r="111"/>
      <g id="Lueurs">
        <path d="m454,264.5c-19.88,0-36,16.12-36,36s16.12,36,36,36,36-16.12,36-36-16.12-36-36-36Zm1.26,5.88c1.72.04,12.84.46,20.76,9.68,6.94,8.08,6.62,17.34,6.5,19.36l-27.25-29.03Z"/>
        <path d="m347,263.5c-19.88,0-36,16.12-36,36s16.12,36,36,36,36-16.12,36-36-16.12-36-36-36Zm1.06,6.51c1.72.04,12.84.46,20.76,9.68,6.94,8.08,6.62,17.34,6.5,19.36l-27.25-29.03Z"/>
      </g>
    </g>
  </g>
</svg>