<?xml version="1.0" encoding="UTF-8"?>
<svg id="AICleanLogo" xmlns="http://www.w3.org/2000/svg" viewBox="0 0 800 800">
  <defs>
    <style>
      .cls-1 {
        fill: #fff;
      }

      .cls-2 {
        stroke-linejoin: bevel;
      }

      .cls-2, .cls-3 {
        fill: none;
        stroke: #dadada;
        stroke-linecap: round;
        stroke-width: 5px;
      }

      .cls-4 {
        fill: #00843d;
      }

      .cls-5 {
        fill: #f9423a;
      }

      .cls-6 {
        fill: #b2b2b2;
        opacity: .75;
      }

      .cls-3 {
        stroke-miterlimit: 10;
      }
    </style>
  </defs>
  <g id="Android">
    <g id="Body">
      <ellipse id="BodyBase" class="cls-4" cx="399.5" cy="464" rx="137" ry="136.5"/>
      <ellipse id="InnerBody" class="cls-1" cx="399" cy="440.5" rx="126.5" ry="114"/>
      <path id="Lueur_HEad" data-name="Lueur HEad" class="cls-2" d="m517.94,509.27c-3.47,10.09-12.26,30.37-34.67,49.03-23.28,19.38-49.04,26.84-61.4,29.7"/>
    </g>
    <g id="Head">
      <circle id="HEad_Base" data-name="HEad Base" class="cls-5" cx="399.5" cy="271" r="136.5"/>
      <circle id="FaceBase" class="cls-1" cx="400" cy="296.5" r="111"/>
      <g id="Eyes">
        <circle id="Eyes_R" data-name="Eyes R" class="cls-6" cx="454" cy="300.5" r="36"/>
        <circle id="Eyes_L" data-name="Eyes L" class="cls-6" cx="347" cy="299.5" r="36"/>
      </g>
      <g id="Lueurs">
        <path id="Lueur_Eye_R" data-name="Lueur Eye R" class="cls-3" d="m455.26,270.38c1.72.04,12.84.46,20.76,9.68,6.94,8.08,6.62,17.34,6.5,19.36"/>
        <path id="Lueur_Eye_L" data-name="Lueur Eye L" class="cls-3" d="m348.06,270.01c1.72.04,12.84.46,20.76,9.68,6.94,8.08,6.62,17.34,6.5,19.36"/>
      </g>
      <path id="Lueur_Body" data-name="Lueur Body" class="cls-2" d="m435.58,149.21c11.09,3.31,33.4,11.59,54.05,32.07,21.45,21.27,29.84,44.52,33.09,55.67"/>
    </g>
  </g>
</svg>